<mxfile host="app.diagrams.net" agent="Mozilla/5.0 (Windows NT 10.0; Win64; x64) AppleWebKit/537.36 (KHTML, like Gecko) Chrome/136.0.0.0 Whale/4.32.315.22 Safari/537.36" version="27.2.0">
  <diagram name="페이지-1" id="WcWaxQI-lAs0KIV-8aOp">
    <mxGraphModel dx="1387" dy="773" grid="0" gridSize="10" guides="1" tooltips="1" connect="1" arrows="1" fold="1" page="1" pageScale="1" pageWidth="1920" pageHeight="1080" math="0" shadow="0">
      <root>
        <mxCell id="0" />
        <mxCell id="1" parent="0" />
        <mxCell id="JQRE3MaDqHiWEcQFpV24-37" style="edgeStyle=orthogonalEdgeStyle;rounded=0;orthogonalLoop=1;jettySize=auto;html=1;exitX=0.5;exitY=1;exitDx=0;exitDy=0;entryX=0.5;entryY=0;entryDx=0;entryDy=0;" edge="1" parent="1" source="JQRE3MaDqHiWEcQFpV24-1" target="JQRE3MaDqHiWEcQFpV24-2">
          <mxGeometry relative="1" as="geometry" />
        </mxCell>
        <mxCell id="JQRE3MaDqHiWEcQFpV24-1" value="&lt;font face=&quot;Helvetica&quot; style=&quot;color: rgb(255, 255, 255);&quot;&gt;&lt;b style=&quot;&quot;&gt;보행자 횡단보도 접근&lt;/b&gt;&lt;/font&gt;" style="rounded=1;whiteSpace=wrap;html=1;fillColor=#1F4E79;strokeColor=none;" vertex="1" parent="1">
          <mxGeometry x="152" y="63" width="130" height="34" as="geometry" />
        </mxCell>
        <mxCell id="JQRE3MaDqHiWEcQFpV24-31" style="edgeStyle=orthogonalEdgeStyle;rounded=0;orthogonalLoop=1;jettySize=auto;html=1;exitX=0.5;exitY=1;exitDx=0;exitDy=0;entryX=0.5;entryY=0;entryDx=0;entryDy=0;" edge="1" parent="1" source="JQRE3MaDqHiWEcQFpV24-2" target="JQRE3MaDqHiWEcQFpV24-3">
          <mxGeometry relative="1" as="geometry" />
        </mxCell>
        <mxCell id="JQRE3MaDqHiWEcQFpV24-36" style="edgeStyle=orthogonalEdgeStyle;rounded=0;orthogonalLoop=1;jettySize=auto;html=1;exitX=1;exitY=0.5;exitDx=0;exitDy=0;" edge="1" parent="1" source="JQRE3MaDqHiWEcQFpV24-2" target="JQRE3MaDqHiWEcQFpV24-5">
          <mxGeometry relative="1" as="geometry" />
        </mxCell>
        <mxCell id="JQRE3MaDqHiWEcQFpV24-2" value="&lt;font style=&quot;color: rgb(255, 255, 255);&quot;&gt;&lt;b&gt;AI 카메라 및 센서 인식&lt;/b&gt;&lt;/font&gt;" style="rounded=0;whiteSpace=wrap;html=1;strokeColor=none;fillColor=#1F4E79;" vertex="1" parent="1">
          <mxGeometry x="152" y="128" width="128" height="33" as="geometry" />
        </mxCell>
        <mxCell id="JQRE3MaDqHiWEcQFpV24-30" style="edgeStyle=orthogonalEdgeStyle;rounded=0;orthogonalLoop=1;jettySize=auto;html=1;exitX=0.5;exitY=1;exitDx=0;exitDy=0;entryX=0.5;entryY=0;entryDx=0;entryDy=0;" edge="1" parent="1" source="JQRE3MaDqHiWEcQFpV24-3" target="JQRE3MaDqHiWEcQFpV24-6">
          <mxGeometry relative="1" as="geometry" />
        </mxCell>
        <mxCell id="JQRE3MaDqHiWEcQFpV24-3" value="&lt;font style=&quot;color: rgb(255, 255, 255);&quot;&gt;&lt;b&gt;보행신호 연장&lt;/b&gt;&lt;/font&gt;&lt;div&gt;&lt;font style=&quot;color: rgb(255, 255, 255);&quot;&gt;&lt;b&gt;조건 자동 계산&lt;/b&gt;&lt;/font&gt;&lt;/div&gt;" style="rounded=0;whiteSpace=wrap;html=1;strokeColor=none;fillColor=#1F4E79;" vertex="1" parent="1">
          <mxGeometry x="152" y="204" width="128" height="39" as="geometry" />
        </mxCell>
        <mxCell id="JQRE3MaDqHiWEcQFpV24-35" style="edgeStyle=orthogonalEdgeStyle;rounded=0;orthogonalLoop=1;jettySize=auto;html=1;exitX=0.5;exitY=1;exitDx=0;exitDy=0;" edge="1" parent="1" source="JQRE3MaDqHiWEcQFpV24-5" target="JQRE3MaDqHiWEcQFpV24-7">
          <mxGeometry relative="1" as="geometry" />
        </mxCell>
        <mxCell id="JQRE3MaDqHiWEcQFpV24-5" value="&lt;font style=&quot;color: rgb(255, 255, 255);&quot;&gt;&lt;b&gt;범죄자 탐지 프로세스&lt;/b&gt;&lt;/font&gt;" style="rounded=0;whiteSpace=wrap;html=1;strokeColor=none;fillColor=#1F4E79;" vertex="1" parent="1">
          <mxGeometry x="383" y="128" width="128" height="33" as="geometry" />
        </mxCell>
        <mxCell id="JQRE3MaDqHiWEcQFpV24-29" style="edgeStyle=orthogonalEdgeStyle;rounded=0;orthogonalLoop=1;jettySize=auto;html=1;exitX=0.5;exitY=1;exitDx=0;exitDy=0;" edge="1" parent="1" source="JQRE3MaDqHiWEcQFpV24-6" target="JQRE3MaDqHiWEcQFpV24-10">
          <mxGeometry relative="1" as="geometry" />
        </mxCell>
        <mxCell id="JQRE3MaDqHiWEcQFpV24-39" value="미연장" style="edgeLabel;html=1;align=center;verticalAlign=middle;resizable=0;points=[];" vertex="1" connectable="0" parent="JQRE3MaDqHiWEcQFpV24-29">
          <mxGeometry x="-0.4263" relative="1" as="geometry">
            <mxPoint as="offset" />
          </mxGeometry>
        </mxCell>
        <mxCell id="JQRE3MaDqHiWEcQFpV24-32" style="edgeStyle=orthogonalEdgeStyle;rounded=0;orthogonalLoop=1;jettySize=auto;html=1;exitX=1;exitY=0.5;exitDx=0;exitDy=0;entryX=1;entryY=0.5;entryDx=0;entryDy=0;" edge="1" parent="1" source="JQRE3MaDqHiWEcQFpV24-6" target="JQRE3MaDqHiWEcQFpV24-3">
          <mxGeometry relative="1" as="geometry" />
        </mxCell>
        <mxCell id="JQRE3MaDqHiWEcQFpV24-38" value="연장" style="edgeLabel;html=1;align=center;verticalAlign=middle;resizable=0;points=[];" vertex="1" connectable="0" parent="JQRE3MaDqHiWEcQFpV24-32">
          <mxGeometry x="0.0486" relative="1" as="geometry">
            <mxPoint as="offset" />
          </mxGeometry>
        </mxCell>
        <mxCell id="JQRE3MaDqHiWEcQFpV24-6" value="&lt;font style=&quot;color: rgb(255, 255, 255);&quot;&gt;&lt;b&gt;연장 여부 판단&lt;/b&gt;&lt;/font&gt;" style="rhombus;whiteSpace=wrap;html=1;strokeColor=none;fillColor=#1F4E79;" vertex="1" parent="1">
          <mxGeometry x="154.5" y="278" width="123" height="41" as="geometry" />
        </mxCell>
        <mxCell id="JQRE3MaDqHiWEcQFpV24-33" style="edgeStyle=orthogonalEdgeStyle;rounded=0;orthogonalLoop=1;jettySize=auto;html=1;exitX=0.5;exitY=1;exitDx=0;exitDy=0;entryX=0.5;entryY=0;entryDx=0;entryDy=0;" edge="1" parent="1" source="JQRE3MaDqHiWEcQFpV24-7" target="JQRE3MaDqHiWEcQFpV24-9">
          <mxGeometry relative="1" as="geometry" />
        </mxCell>
        <mxCell id="JQRE3MaDqHiWEcQFpV24-41" value="탐지 x" style="edgeLabel;html=1;align=center;verticalAlign=middle;resizable=0;points=[];" vertex="1" connectable="0" parent="JQRE3MaDqHiWEcQFpV24-33">
          <mxGeometry x="-0.0563" y="1" relative="1" as="geometry">
            <mxPoint as="offset" />
          </mxGeometry>
        </mxCell>
        <mxCell id="JQRE3MaDqHiWEcQFpV24-34" style="edgeStyle=orthogonalEdgeStyle;rounded=0;orthogonalLoop=1;jettySize=auto;html=1;exitX=1;exitY=0.5;exitDx=0;exitDy=0;entryX=0;entryY=0.5;entryDx=0;entryDy=0;" edge="1" parent="1" source="JQRE3MaDqHiWEcQFpV24-7" target="JQRE3MaDqHiWEcQFpV24-8">
          <mxGeometry relative="1" as="geometry" />
        </mxCell>
        <mxCell id="JQRE3MaDqHiWEcQFpV24-42" value="범죄자&lt;br&gt;탐지" style="edgeLabel;html=1;align=center;verticalAlign=middle;resizable=0;points=[];" vertex="1" connectable="0" parent="JQRE3MaDqHiWEcQFpV24-34">
          <mxGeometry x="-0.2165" y="-1" relative="1" as="geometry">
            <mxPoint as="offset" />
          </mxGeometry>
        </mxCell>
        <mxCell id="JQRE3MaDqHiWEcQFpV24-7" value="&lt;font style=&quot;color: rgb(255, 255, 255);&quot;&gt;&lt;b&gt;범죄자 탐지&lt;/b&gt;&lt;/font&gt;" style="rhombus;whiteSpace=wrap;html=1;strokeColor=none;fillColor=#1F4E79;" vertex="1" parent="1">
          <mxGeometry x="383" y="198" width="127" height="41" as="geometry" />
        </mxCell>
        <mxCell id="JQRE3MaDqHiWEcQFpV24-8" value="&lt;font style=&quot;color: rgb(255, 255, 255);&quot;&gt;&lt;b&gt;신고용 영상 자동 저장&lt;/b&gt;&lt;/font&gt;" style="rounded=0;whiteSpace=wrap;html=1;strokeColor=none;fillColor=#1F4E79;" vertex="1" parent="1">
          <mxGeometry x="589" y="202" width="128" height="33" as="geometry" />
        </mxCell>
        <mxCell id="JQRE3MaDqHiWEcQFpV24-9" value="&lt;font style=&quot;color: rgb(255, 255, 255);&quot;&gt;&lt;b&gt;정상 프로세스 진행 (행동x)&lt;/b&gt;&lt;/font&gt;" style="rounded=0;whiteSpace=wrap;html=1;strokeColor=none;fillColor=#1F4E79;" vertex="1" parent="1">
          <mxGeometry x="378" y="282" width="138" height="33" as="geometry" />
        </mxCell>
        <mxCell id="JQRE3MaDqHiWEcQFpV24-18" style="edgeStyle=orthogonalEdgeStyle;rounded=0;orthogonalLoop=1;jettySize=auto;html=1;exitX=0.5;exitY=1;exitDx=0;exitDy=0;" edge="1" parent="1" source="JQRE3MaDqHiWEcQFpV24-10" target="JQRE3MaDqHiWEcQFpV24-12">
          <mxGeometry relative="1" as="geometry" />
        </mxCell>
        <mxCell id="JQRE3MaDqHiWEcQFpV24-45" value="일반인" style="edgeLabel;html=1;align=center;verticalAlign=middle;resizable=0;points=[];" vertex="1" connectable="0" parent="JQRE3MaDqHiWEcQFpV24-18">
          <mxGeometry x="-0.524" y="1" relative="1" as="geometry">
            <mxPoint as="offset" />
          </mxGeometry>
        </mxCell>
        <mxCell id="JQRE3MaDqHiWEcQFpV24-19" style="edgeStyle=orthogonalEdgeStyle;rounded=0;orthogonalLoop=1;jettySize=auto;html=1;exitX=1;exitY=0.5;exitDx=0;exitDy=0;" edge="1" parent="1" source="JQRE3MaDqHiWEcQFpV24-10" target="JQRE3MaDqHiWEcQFpV24-13">
          <mxGeometry relative="1" as="geometry" />
        </mxCell>
        <mxCell id="JQRE3MaDqHiWEcQFpV24-43" value="외국인" style="edgeLabel;html=1;align=center;verticalAlign=middle;resizable=0;points=[];" vertex="1" connectable="0" parent="JQRE3MaDqHiWEcQFpV24-19">
          <mxGeometry x="-0.3881" y="3" relative="1" as="geometry">
            <mxPoint as="offset" />
          </mxGeometry>
        </mxCell>
        <mxCell id="JQRE3MaDqHiWEcQFpV24-10" value="&lt;font color=&quot;#ffffff&quot;&gt;&lt;b&gt;안내 조건 판단&lt;/b&gt;&lt;/font&gt;" style="rhombus;whiteSpace=wrap;html=1;strokeColor=none;fillColor=#1F4E79;" vertex="1" parent="1">
          <mxGeometry x="154.5" y="354" width="123" height="41" as="geometry" />
        </mxCell>
        <mxCell id="JQRE3MaDqHiWEcQFpV24-26" style="edgeStyle=orthogonalEdgeStyle;rounded=0;orthogonalLoop=1;jettySize=auto;html=1;exitX=0.5;exitY=1;exitDx=0;exitDy=0;" edge="1" parent="1" source="JQRE3MaDqHiWEcQFpV24-11" target="JQRE3MaDqHiWEcQFpV24-21">
          <mxGeometry relative="1" as="geometry" />
        </mxCell>
        <mxCell id="JQRE3MaDqHiWEcQFpV24-11" value="&lt;font style=&quot;color: rgb(255, 255, 255);&quot;&gt;&lt;b&gt;어린이 전용 음성 안내&lt;/b&gt;&lt;/font&gt;" style="rounded=0;whiteSpace=wrap;html=1;strokeColor=none;fillColor=#1F4E79;" vertex="1" parent="1">
          <mxGeometry x="16.5" y="430" width="121.5" height="33" as="geometry" />
        </mxCell>
        <mxCell id="JQRE3MaDqHiWEcQFpV24-27" style="edgeStyle=orthogonalEdgeStyle;rounded=0;orthogonalLoop=1;jettySize=auto;html=1;exitX=0.5;exitY=1;exitDx=0;exitDy=0;" edge="1" parent="1" source="JQRE3MaDqHiWEcQFpV24-12" target="JQRE3MaDqHiWEcQFpV24-21">
          <mxGeometry relative="1" as="geometry" />
        </mxCell>
        <mxCell id="JQRE3MaDqHiWEcQFpV24-12" value="&lt;font style=&quot;color: rgb(255, 255, 255);&quot;&gt;&lt;b&gt;일반 음성 안내&lt;/b&gt;&lt;/font&gt;" style="rounded=0;whiteSpace=wrap;html=1;strokeColor=none;fillColor=#1F4E79;" vertex="1" parent="1">
          <mxGeometry x="157.5" y="430" width="117" height="33" as="geometry" />
        </mxCell>
        <mxCell id="JQRE3MaDqHiWEcQFpV24-28" style="edgeStyle=orthogonalEdgeStyle;rounded=0;orthogonalLoop=1;jettySize=auto;html=1;exitX=0.5;exitY=1;exitDx=0;exitDy=0;" edge="1" parent="1" source="JQRE3MaDqHiWEcQFpV24-13" target="JQRE3MaDqHiWEcQFpV24-21">
          <mxGeometry relative="1" as="geometry" />
        </mxCell>
        <mxCell id="JQRE3MaDqHiWEcQFpV24-13" value="&lt;font style=&quot;color: rgb(255, 255, 255);&quot;&gt;&lt;b&gt;다국어 음성 안내&lt;/b&gt;&lt;/font&gt;" style="rounded=0;whiteSpace=wrap;html=1;strokeColor=none;fillColor=#1F4E79;" vertex="1" parent="1">
          <mxGeometry x="287" y="430" width="116" height="33" as="geometry" />
        </mxCell>
        <mxCell id="JQRE3MaDqHiWEcQFpV24-15" style="edgeStyle=orthogonalEdgeStyle;rounded=0;orthogonalLoop=1;jettySize=auto;html=1;exitX=0;exitY=0.5;exitDx=0;exitDy=0;entryX=0.562;entryY=0.059;entryDx=0;entryDy=0;entryPerimeter=0;" edge="1" parent="1" source="JQRE3MaDqHiWEcQFpV24-10" target="JQRE3MaDqHiWEcQFpV24-11">
          <mxGeometry relative="1" as="geometry" />
        </mxCell>
        <mxCell id="JQRE3MaDqHiWEcQFpV24-44" value="어린이" style="edgeLabel;html=1;align=center;verticalAlign=middle;resizable=0;points=[];" vertex="1" connectable="0" parent="JQRE3MaDqHiWEcQFpV24-15">
          <mxGeometry x="-0.3593" relative="1" as="geometry">
            <mxPoint as="offset" />
          </mxGeometry>
        </mxCell>
        <mxCell id="JQRE3MaDqHiWEcQFpV24-20" value="&lt;font style=&quot;color: rgb(255, 255, 255);&quot;&gt;&lt;b&gt;일반 정상 알림음&lt;/b&gt;&lt;/font&gt;" style="rounded=0;whiteSpace=wrap;html=1;strokeColor=none;fillColor=#1F4E79;" vertex="1" parent="1">
          <mxGeometry x="57" y="594" width="117" height="33" as="geometry" />
        </mxCell>
        <mxCell id="JQRE3MaDqHiWEcQFpV24-24" style="edgeStyle=orthogonalEdgeStyle;rounded=0;orthogonalLoop=1;jettySize=auto;html=1;exitX=0;exitY=0.5;exitDx=0;exitDy=0;" edge="1" parent="1" source="JQRE3MaDqHiWEcQFpV24-21" target="JQRE3MaDqHiWEcQFpV24-20">
          <mxGeometry relative="1" as="geometry" />
        </mxCell>
        <mxCell id="JQRE3MaDqHiWEcQFpV24-46" value="안전" style="edgeLabel;html=1;align=center;verticalAlign=middle;resizable=0;points=[];" vertex="1" connectable="0" parent="JQRE3MaDqHiWEcQFpV24-24">
          <mxGeometry x="0.3138" relative="1" as="geometry">
            <mxPoint as="offset" />
          </mxGeometry>
        </mxCell>
        <mxCell id="JQRE3MaDqHiWEcQFpV24-25" style="edgeStyle=orthogonalEdgeStyle;rounded=0;orthogonalLoop=1;jettySize=auto;html=1;exitX=1;exitY=0.5;exitDx=0;exitDy=0;" edge="1" parent="1" source="JQRE3MaDqHiWEcQFpV24-21" target="JQRE3MaDqHiWEcQFpV24-23">
          <mxGeometry relative="1" as="geometry" />
        </mxCell>
        <mxCell id="JQRE3MaDqHiWEcQFpV24-47" value="위험" style="edgeLabel;html=1;align=center;verticalAlign=middle;resizable=0;points=[];" vertex="1" connectable="0" parent="JQRE3MaDqHiWEcQFpV24-25">
          <mxGeometry x="0.2934" y="-1" relative="1" as="geometry">
            <mxPoint as="offset" />
          </mxGeometry>
        </mxCell>
        <mxCell id="JQRE3MaDqHiWEcQFpV24-21" value="&lt;font style=&quot;color: rgb(255, 255, 255);&quot;&gt;&lt;b&gt;위험 상황 판단&lt;/b&gt;&lt;/font&gt;" style="rhombus;whiteSpace=wrap;html=1;strokeColor=none;fillColor=#1F4E79;" vertex="1" parent="1">
          <mxGeometry x="154.5" y="506" width="123" height="41" as="geometry" />
        </mxCell>
        <mxCell id="JQRE3MaDqHiWEcQFpV24-23" value="&lt;font style=&quot;color: rgb(255, 255, 255);&quot;&gt;&lt;b&gt;위험 알림음&lt;/b&gt;&lt;/font&gt;" style="rounded=0;whiteSpace=wrap;html=1;strokeColor=none;fillColor=#1F4E79;" vertex="1" parent="1">
          <mxGeometry x="253" y="594" width="117" height="33" as="geometry" />
        </mxCell>
      </root>
    </mxGraphModel>
  </diagram>
</mxfile>
